<!-- Generated by IcoMoon.io -->
<svg version="1.1" xmlns="http://www.w3.org/2000/svg" width="32" height="32" viewBox="0 0 32 32">
<title>Vector</title>
<path d="M27.419 20.852l-4.201-0.48c-0.115-0.014-0.248-0.022-0.384-0.022-0.91 0-1.733 0.369-2.329 0.965l-3.044 3.044c-4.717-2.434-8.467-6.184-10.836-10.762l-0.065-0.139 3.060-3.060c0.596-0.596 0.965-1.42 0.965-2.329 0-0.135-0.008-0.268-0.024-0.399l0.002 0.016-0.48-4.168c-0.198-1.656-1.594-2.928-3.288-2.928-0.001 0-0.003 0-0.004 0h-2.862c-1.869 0-3.424 1.555-3.308 3.424 0.877 14.126 12.174 25.407 26.284 26.284 1.869 0.116 3.424-1.439 3.424-3.308v-2.862c0.016-1.671-1.241-3.077-2.911-3.275z"></path>
</svg>
